{
  "accessors": [
    {
      "bufferView": 2,
      "componentType": 5126,
      "count": 65532,
      "max": [
        8.0355730056762695,
        5.2686061859130859,
        -3.0523500442504883
      ],
      "min": [
        -2.0373780727386475,
        -0.60246402025222778,
        -4.7674050331115723
      ],
      "type": "VEC3"
    },
    {
      "bufferView": 2,
      "byteOffset": 786384,
      "componentType": 5126,
      "count": 65532,
      "max": [
        0.99641638994216919,
        0.9946291446685791,
        0.99999803304672241
      ],
      "min": [
        -0.9996379017829895,
        -0.99961471557617188,
        -0.99984931945800781
      ],
      "type": "VEC3"
    },
    {
      "bufferView": 3,
      "componentType": 5126,
      "count": 65532,
      "max": [
        0.99782705307006836,
        0.99733471870422363,
        0.99813944101333618,
        1
      ],
      "min": [
        -0.99709779024124146,
        -0.99961972236633301,
        -0.99987226724624634,
        -1
      ],
      "type": "VEC4"
    },
    {
      "bufferView": 1,
      "componentType": 5126,
      "count": 65532,
      "max": [
        0.99509400129318237,
        0.99849700927734375
      ],
      "min": [
        0.0081749996170401573,
        0.0031429999507963657
      ],
      "type": "VEC2"
    },
    {
      "bufferView": 0,
      "componentType": 5125,
      "count": 344910,
      "max": [
        65531
      ],
      "min": [
        0
      ],
      "type": "SCALAR"
    },
    {
      "bufferView": 2,
      "byteOffset": 1572768,
      "componentType": 5126,
      "count": 65532,
      "max": [
        7.9027471542358398,
        5.257382869720459,
        -2.9844980239868164
      ],
      "min": [
        -1.3775540590286255,
        -0.60534000396728516,
        -4.2125101089477539
      ],
      "type": "VEC3"
    },
    {
      "bufferView": 2,
      "byteOffset": 2359152,
      "componentType": 5126,
      "count": 65532,
      "max": [
        0.99752247333526611,
        0.9965132474899292,
        0.99999570846557617
      ],
      "min": [
        -0.99985486268997192,
        -0.99074143171310425,
        -0.99934077262878418
      ],
      "type": "VEC3"
    },
    {
      "bufferView": 3,
      "byteOffset": 1048512,
      "componentType": 5126,
      "count": 65532,
      "max": [
        0.99310612678527832,
        0.99981904029846191,
        0.99999517202377319,
        1
      ],
      "min": [
        -0.99578857421875,
        -0.99995940923690796,
        -0.99970030784606934,
        -1
      ],
      "type": "VEC4"
    },
    {
      "bufferView": 1,
      "byteOffset": 524256,
      "componentType": 5126,
      "count": 65532,
      "max": [
        0.98609000444412231,
        0.99854397773742676
      ],
      "min": [
        0.0094029996544122696,
        0.003148999996483326
      ],
      "type": "VEC2"
    },
    {
      "bufferView": 0,
      "byteOffset": 1379640,
      "componentType": 5125,
      "count": 317823,
      "max": [
        65531
      ],
      "min": [
        0
      ],
      "type": "SCALAR"
    },
    {
      "bufferView": 2,
      "byteOffset": 3145536,
      "componentType": 5126,
      "count": 35690,
      "max": [
        7.8575191497802734,
        5.2151222229003906,
        -2.9786109924316406
      ],
      "min": [
        -0.47309601306915283,
        -0.57892698049545288,
        -3.8810720443725586
      ],
      "type": "VEC3"
    },
    {
      "bufferView": 2,
      "byteOffset": 3573816,
      "componentType": 5126,
      "count": 35690,
      "max": [
        0.99800348281860352,
        0.99984383583068848,
        0.9999312162399292
      ],
      "min": [
        -0.99913585186004639,
        -0.99072378873825073,
        -0.99873864650726318
      ],
      "type": "VEC3"
    },
    {
      "bufferView": 3,
      "byteOffset": 2097024,
      "componentType": 5126,
      "count": 35690,
      "max": [
        0.9998481273651123,
        0.99026322364807129,
        0.99972963333129883,
        1
      ],
      "min": [
        -0.99918252229690552,
        -0.99730032682418823,
        -0.9999091625213623,
        -1
      ],
      "type": "VEC4"
    },
    {
      "bufferView": 1,
      "byteOffset": 1048512,
      "componentType": 5126,
      "count": 35690,
      "max": [
        0.98420298099517822,
        0.99875098466873169
      ],
      "min": [
        0.0088290004059672356,
        0.0082350000739097595
      ],
      "type": "VEC2"
    },
    {
      "bufferView": 0,
      "byteOffset": 2650932,
      "componentType": 5125,
      "count": 156462,
      "max": [
        35689
      ],
      "min": [
        0
      ],
      "type": "SCALAR"
    }
  ],
  "asset": {
    "extras": {
      "author": "bajaltura.com (https://sketchfab.com/bajaltura.com)",
      "license": "CC-BY-4.0 (http://creativecommons.org/licenses/by/4.0/)",
      "source": "https://sketchfab.com/models/7876a148ce844995bb42f2efeb489f95",
      "title": "Picos de Europa #1"
    },
    "generator": "Sketchfab-3.18.2",
    "version": "2.0"
  },
  "bufferViews": [
    {
      "buffer": 0,
      "byteLength": 3276780,
      "byteOffset": 0,
      "name": "floatBufferViews",
      "target": 34963
    },
    {
      "buffer": 0,
      "byteLength": 1334032,
      "byteOffset": 3276780,
      "byteStride": 8,
      "name": "floatBufferViews",
      "target": 34962
    },
    {
      "buffer": 0,
      "byteLength": 4002096,
      "byteOffset": 4610812,
      "byteStride": 12,
      "name": "floatBufferViews",
      "target": 34962
    },
    {
      "buffer": 0,
      "byteLength": 2668064,
      "byteOffset": 8612908,
      "byteStride": 16,
      "name": "floatBufferViews",
      "target": 34962
    }
  ],
  "buffers": [
    {
      "byteLength": 11280972,
      "uri": "scene.bin"
    }
  ],
  "extensionsUsed": [
    "KHR_materials_unlit"
  ],
  "images": [
    {
      "uri": "textures/material_0_baseColor.jpeg"
    }
  ],
  "materials": [
    {
      "doubleSided": true,
      "emissiveFactor": [
        0,
        0,
        0
      ],
      "extensions": {
        "KHR_materials_unlit": {}
      },
      "name": "material_0",
      "pbrMetallicRoughness": {
        "baseColorFactor": [
          1,
          1,
          1,
          1
        ],
        "baseColorTexture": {
          "index": 0,
          "texCoord": 0
        },
        "metallicFactor": 0,
        "roughnessFactor": 1
      }
    }
  ],
  "meshes": [
    {
      "primitives": [
        {
          "attributes": {
            "NORMAL": 1,
            "POSITION": 0,
            "TANGENT": 2,
            "TEXCOORD_0": 3
          },
          "indices": 4,
          "material": 0,
          "mode": 4
        }
      ]
    },
    {
      "primitives": [
        {
          "attributes": {
            "NORMAL": 6,
            "POSITION": 5,
            "TANGENT": 7,
            "TEXCOORD_0": 8
          },
          "indices": 9,
          "material": 0,
          "mode": 4
        }
      ]
    },
    {
      "primitives": [
        {
          "attributes": {
            "NORMAL": 11,
            "POSITION": 10,
            "TANGENT": 12,
            "TEXCOORD_0": 13
          },
          "indices": 14,
          "material": 0,
          "mode": 4
        }
      ]
    }
  ],
  "nodes": [
    {
      "children": [
        1
      ],
      "name": "RootNode (gltf orientation matrix)",
      "rotation": [
        -0.70710678118654746,
        -0,
        -0,
        0.70710678118654757
      ]
    },
    {
      "children": [
        2
      ],
      "name": "RootNode (model correction matrix)"
    },
    {
      "children": [
        3,
        4,
        5
      ],
      "name": "model.obj.cleaner.gles"
    },
    {
      "mesh": 0,
      "name": ""
    },
    {
      "mesh": 1,
      "name": ""
    },
    {
      "mesh": 2,
      "name": ""
    }
  ],
  "samplers": [
    {
      "magFilter": 9729,
      "minFilter": 9987,
      "wrapS": 10497,
      "wrapT": 10497
    }
  ],
  "scene": 0,
  "scenes": [
    {
      "name": "OSG_Scene",
      "nodes": [
        0
      ]
    }
  ],
  "textures": [
    {
      "sampler": 0,
      "source": 0
    }
  ]
}

